<svg xmlns="http://www.w3.org/2000/svg" xmlns:xlink="http://www.w3.org/1999/xlink" width="1200" zoomAndPan="magnify" viewBox="0 0 900 187.499995" height="250" preserveAspectRatio="xMidYMid meet" version="1.0"><defs><clipPath id="d7af06c225"><path d="M 1.195312 0 L 898.800781 0 L 898.800781 187 L 1.195312 187 Z M 1.195312 0 " clip-rule="nonzero"/></clipPath></defs><g clip-path="url(#d7af06c225)"><path fill="#ffffff" d="M 998.972656 456.402344 C 602.1875 456.402344 205.9375 456.402344 -190.308594 456.402344 C -190.308594 215.296875 -190.308594 -25.808594 -190.308594 -266.917969 C 238.261719 -266.917969 666.828125 -266.917969 1095.398438 -266.917969 C 1095.398438 -25.8125 1095.398438 215.296875 1095.398438 456.402344 C 1063.4375 456.402344 1031.472656 456.402344 998.972656 456.402344 M 364.113281 147.792969 C 369.503906 151.898438 374.726562 156.261719 380.34375 160.035156 C 385.617188 163.582031 389.152344 161.589844 389.710938 155.222656 C 389.863281 153.445312 389.808594 151.652344 389.8125 149.867188 C 389.824219 144.136719 389.816406 138.40625 389.816406 132.121094 C 394.558594 137.304688 398.152344 142.25 402.707031 146.042969 C 422.289062 162.355469 445.117188 163.992188 468.996094 159.589844 C 470.632812 159.285156 472.351562 157.160156 473.257812 155.464844 C 482.578125 138.003906 491.742188 120.460938 500.945312 102.9375 C 503.472656 98.125 502.339844 95.878906 496.917969 95.78125 C 487.457031 95.613281 477.992188 95.820312 468.53125 95.71875 C 463.902344 95.671875 462.160156 97.871094 462.28125 102.3125 C 462.433594 108.023438 462.578125 113.761719 462.160156 119.445312 C 462.027344 121.261719 460.402344 124.101562 458.925781 124.503906 C 451.765625 126.445312 444.433594 126.765625 437.496094 123.40625 C 427.148438 118.394531 421.914062 106.8125 424.238281 94.480469 C 426.6875 81.515625 434.820312 74.078125 447.914062 73.007812 C 457.785156 72.203125 467.015625 74.527344 475.789062 79.007812 C 482.320312 82.347656 483.589844 81.9375 487.382812 75.792969 C 490.566406 70.632812 493.761719 65.480469 496.949219 60.324219 C 500.691406 54.261719 500.371094 51.503906 493.773438 48.433594 C 485.105469 44.402344 476.257812 39.960938 467.007812 38.113281 C 443.847656 33.496094 421.75 36.515625 403.085938 52.5 C 398.226562 56.664062 394.457031 62.097656 389.828125 67.363281 C 389.828125 65.414062 389.828125 63.84375 389.828125 62.269531 C 389.824219 49.949219 389.824219 37.628906 389.824219 25.308594 C 389.820312 16.472656 389.417969 16.082031 380.355469 16.078125 C 372.5 16.078125 364.644531 16.042969 356.789062 16.089844 C 350.738281 16.128906 349.585938 17.253906 349.574219 23.289062 C 349.535156 40.429688 349.5625 57.574219 349.5625 74.714844 C 349.5625 78.914062 349.5625 83.113281 349.5625 88.128906 C 347.96875 86.996094 347.128906 86.445312 346.339844 85.828125 C 329.457031 72.664062 312.597656 59.472656 295.699219 46.328125 C 291.761719 43.261719 287.894531 40.039062 283.648438 37.453125 C 279.109375 34.683594 275.609375 36.664062 274.949219 41.933594 C 274.726562 43.695312 274.824219 45.5 274.824219 47.285156 C 274.816406 74.25 274.820312 101.210938 274.800781 128.175781 C 274.800781 129.609375 274.601562 131.042969 274.414062 133.503906 C 273.246094 131.609375 272.644531 130.753906 272.164062 129.839844 C 258.046875 103 243.957031 76.152344 229.824219 49.324219 C 228.082031 46.015625 226.351562 42.664062 224.222656 39.601562 C 220.273438 33.910156 216.023438 34.070312 212 39.820312 C 211.386719 40.695312 210.839844 41.625 210.34375 42.566406 C 199.296875 63.550781 188.273438 84.546875 177.226562 105.527344 C 172.128906 115.207031 166.984375 124.859375 161.863281 134.523438 C 161.5 134.433594 161.140625 134.34375 160.78125 134.25 C 160.78125 132.378906 160.78125 130.503906 160.78125 128.628906 C 160.777344 104.878906 160.777344 81.128906 160.777344 57.382812 C 160.777344 52.917969 161.152344 48.40625 160.621094 44.007812 C 160.3125 41.457031 159.128906 38.097656 157.226562 36.964844 C 155.824219 36.132812 152.261719 37.8125 150.316406 39.257812 C 147.191406 41.574219 144.558594 44.574219 141.800781 47.371094 C 127.160156 62.226562 112.546875 77.113281 96.8125 93.117188 C 95.066406 90.714844 94.109375 88.9375 92.742188 87.574219 C 76.566406 71.441406 60.394531 55.308594 44.019531 39.382812 C 42.347656 37.757812 38.570312 36.113281 37.171875 36.914062 C 35.277344 38.007812 33.769531 41.449219 33.757812 43.890625 C 33.558594 87.636719 33.648438 131.382812 33.554688 175.132812 C 33.546875 180.320312 35.855469 182.050781 40.75 181.941406 C 49.136719 181.753906 57.53125 181.90625 65.921875 181.882812 C 72.839844 181.867188 73.859375 180.859375 73.878906 173.734375 C 73.917969 157.308594 73.894531 140.882812 73.898438 124.453125 C 73.898438 122.84375 73.898438 121.230469 73.898438 119.621094 C 74.726562 119.148438 75.554688 118.675781 76.386719 118.203125 C 81.585938 124.078125 86.71875 130.007812 92.003906 135.804688 C 95.273438 139.390625 98.769531 139.300781 102.203125 135.863281 C 103.96875 134.09375 105.78125 132.371094 107.585938 130.644531 C 111.605469 126.804688 115.636719 122.976562 120.382812 118.457031 C 120.382812 130.640625 120.507812 141.519531 120.324219 152.394531 C 120.242188 157.269531 122.3125 159.078125 127.046875 159.046875 C 146.148438 158.933594 165.253906 158.933594 184.355469 159.03125 C 188.835938 159.054688 191.742188 157.296875 193.621094 153.25 C 196.320312 147.429688 199.25 141.71875 202.097656 135.964844 C 207.113281 125.832031 212.136719 115.699219 217.597656 104.679688 C 219.417969 108.269531 220.796875 110.929688 222.128906 113.609375 C 228.648438 126.699219 235.246094 139.75 241.617188 152.914062 C 243.644531 157.109375 246.484375 159.074219 251.214844 159.042969 C 270.316406 158.921875 289.417969 158.949219 308.523438 159.042969 C 313.246094 159.066406 315.316406 157.167969 315.257812 152.328125 C 315.105469 139.652344 315.195312 126.972656 315.226562 114.296875 C 315.226562 113.027344 315.492188 111.757812 315.691406 110.003906 C 332.015625 122.734375 347.769531 135.023438 364.113281 147.792969 M 700.132812 60.453125 C 700.136719 96.847656 700.125 133.242188 700.148438 169.636719 C 700.152344 176.175781 701.105469 177.175781 707.511719 177.238281 C 715.714844 177.320312 723.921875 177.296875 732.128906 177.265625 C 739.492188 177.230469 740.488281 176.242188 740.503906 168.925781 C 740.535156 155.722656 740.671875 142.515625 740.429688 129.320312 C 740.34375 124.777344 741.527344 122.726562 746.40625 123.109375 C 750.65625 123.445312 754.976562 123.292969 759.238281 122.984375 C 772.199219 122.050781 784.984375 119.996094 794.972656 110.792969 C 808.988281 97.878906 809.75 81.214844 805.867188 64.234375 C 802.074219 47.652344 789.578125 38.402344 773.800781 36.832031 C 750.992188 34.5625 727.917969 34.941406 704.957031 34.339844 C 701.410156 34.246094 700.128906 36.78125 700.144531 40.113281 C 700.179688 46.535156 700.140625 52.957031 700.132812 60.453125 M 672.164062 147.257812 C 686.773438 137.238281 693.261719 122.824219 693.480469 105.65625 C 693.851562 76.570312 693.558594 47.480469 693.714844 18.394531 C 693.738281 13.230469 691.589844 11.4375 686.628906 11.554688 C 677.890625 11.769531 669.144531 11.574219 660.402344 11.625 C 654.363281 11.664062 653.269531 12.726562 653.261719 18.875 C 653.222656 43.859375 653.265625 68.84375 653.246094 93.824219 C 653.242188 97.210938 653.238281 100.617188 652.914062 103.984375 C 651.949219 114.042969 646.449219 119.761719 637.21875 120.53125 C 627.085938 121.378906 620.71875 116.804688 618.3125 106.546875 C 617.589844 103.46875 617.488281 100.195312 617.476562 97.007812 C 617.402344 78.449219 617.363281 59.890625 617.488281 41.332031 C 617.523438 36.425781 615.785156 34.070312 610.621094 34.183594 C 601.703125 34.375 592.78125 34.316406 583.859375 34.207031 C 579.167969 34.152344 576.988281 36.140625 577.039062 40.929688 C 577.148438 51.277344 577.007812 61.628906 577.113281 71.980469 C 577.128906 73.6875 577.511719 75.566406 578.296875 77.066406 C 591.402344 102.199219 604.5625 127.304688 617.863281 152.335938 C 618.738281 153.984375 620.738281 155.890625 622.421875 156.117188 C 639.625 158.433594 656.234375 156.808594 672.164062 147.257812 M 492.808594 130.644531 C 488.652344 138.53125 484.460938 146.398438 480.359375 154.3125 C 477.878906 159.097656 478.871094 160.738281 484.3125 160.785156 C 492.699219 160.859375 501.121094 160.367188 509.472656 160.9375 C 516.535156 161.421875 520.117188 158.339844 522.953125 152.273438 C 530.050781 137.09375 537.667969 122.160156 545.359375 106.550781 C 546.332031 108.316406 547.121094 109.644531 547.804688 111.019531 C 554.953125 125.386719 562.132812 139.738281 569.1875 154.148438 C 571.339844 158.550781 574.171875 161.085938 579.519531 160.894531 C 588.789062 160.558594 598.082031 160.828125 607.363281 160.792969 C 613.523438 160.769531 614.582031 159.242188 611.742188 153.828125 C 592.777344 117.664062 573.8125 81.5 554.5625 45.488281 C 552.804688 42.195312 549.429688 38.316406 546.171875 37.601562 C 541.210938 36.519531 539.460938 42.03125 537.523438 45.695312 C 522.679688 73.746094 507.960938 101.863281 492.808594 130.644531 M 810.503906 92.5625 C 808.578125 103.632812 806.875 114.75 804.636719 125.753906 C 803.589844 130.898438 805.066406 133.585938 810.121094 134.652344 C 816.050781 135.902344 821.976562 137.191406 827.835938 138.730469 C 832.308594 139.902344 834.597656 138.050781 835.78125 133.96875 C 846.457031 97.152344 857.175781 60.351562 867.796875 23.527344 C 869.472656 17.71875 868.351562 15.839844 862.296875 14.304688 C 852.964844 11.941406 843.585938 9.75 834.1875 7.6875 C 827.070312 6.128906 825.421875 7.371094 824.132812 14.703125 C 819.617188 40.347656 815.125 65.996094 810.503906 92.5625 M 802.257812 143.136719 C 795.472656 145.816406 792.421875 151.140625 792.085938 158.105469 C 791.757812 164.980469 795.464844 170.007812 801.324219 172.515625 C 806.597656 174.773438 812.511719 176.316406 818.21875 176.585938 C 826.929688 176.996094 832.492188 171.972656 834.324219 163.855469 C 836 156.4375 832.679688 149.539062 825.292969 145.710938 C 818.265625 142.070312 810.855469 140.636719 802.257812 143.136719 Z M 802.257812 143.136719 " fill-opacity="1" fill-rule="nonzero"/></g><path fill="#040917" d="M 363.820312 147.550781 C 347.769531 135.023438 332.015625 122.734375 315.691406 110.003906 C 315.492188 111.757812 315.226562 113.027344 315.226562 114.296875 C 315.195312 126.972656 315.105469 139.652344 315.257812 152.328125 C 315.316406 157.167969 313.246094 159.066406 308.523438 159.042969 C 289.417969 158.949219 270.316406 158.921875 251.214844 159.042969 C 246.484375 159.074219 243.644531 157.109375 241.617188 152.914062 C 235.246094 139.75 228.648438 126.699219 222.128906 113.609375 C 220.796875 110.929688 219.417969 108.269531 217.597656 104.679688 C 212.136719 115.699219 207.113281 125.832031 202.097656 135.964844 C 199.25 141.71875 196.320312 147.429688 193.621094 153.25 C 191.742188 157.296875 188.835938 159.054688 184.355469 159.03125 C 165.253906 158.933594 146.148438 158.933594 127.046875 159.046875 C 122.3125 159.078125 120.242188 157.269531 120.324219 152.394531 C 120.507812 141.519531 120.382812 130.640625 120.382812 118.457031 C 115.636719 122.976562 111.605469 126.804688 107.585938 130.644531 C 105.78125 132.371094 103.96875 134.09375 102.203125 135.863281 C 98.769531 139.300781 95.273438 139.390625 92.003906 135.804688 C 86.71875 130.007812 81.585938 124.078125 76.386719 118.203125 C 75.554688 118.675781 74.726562 119.148438 73.898438 119.621094 C 73.898438 121.230469 73.898438 122.84375 73.898438 124.453125 C 73.894531 140.882812 73.917969 157.308594 73.878906 173.734375 C 73.859375 180.859375 72.839844 181.867188 65.921875 181.882812 C 57.53125 181.90625 49.136719 181.753906 40.75 181.941406 C 35.855469 182.050781 33.546875 180.320312 33.554688 175.132812 C 33.648438 131.382812 33.558594 87.636719 33.757812 43.890625 C 33.769531 41.449219 35.277344 38.007812 37.171875 36.914062 C 38.570312 36.113281 42.347656 37.757812 44.019531 39.382812 C 60.394531 55.308594 76.566406 71.441406 92.742188 87.574219 C 94.109375 88.9375 95.066406 90.714844 96.8125 93.117188 C 112.546875 77.113281 127.160156 62.226562 141.800781 47.371094 C 144.558594 44.574219 147.191406 41.574219 150.316406 39.257812 C 152.261719 37.8125 155.824219 36.132812 157.226562 36.964844 C 159.128906 38.097656 160.3125 41.457031 160.621094 44.007812 C 161.152344 48.40625 160.777344 52.917969 160.777344 57.382812 C 160.777344 81.128906 160.777344 104.878906 160.78125 128.628906 C 160.78125 130.503906 160.78125 132.378906 160.78125 134.25 C 161.140625 134.34375 161.5 134.433594 161.863281 134.523438 C 166.984375 124.859375 172.128906 115.207031 177.226562 105.527344 C 188.273438 84.546875 199.296875 63.550781 210.34375 42.566406 C 210.839844 41.625 211.386719 40.695312 212 39.820312 C 216.023438 34.070312 220.273438 33.910156 224.222656 39.601562 C 226.351562 42.664062 228.082031 46.015625 229.824219 49.324219 C 243.957031 76.152344 258.046875 103 272.164062 129.839844 C 272.644531 130.753906 273.246094 131.609375 274.414062 133.503906 C 274.601562 131.042969 274.800781 129.609375 274.800781 128.175781 C 274.820312 101.210938 274.816406 74.25 274.824219 47.285156 C 274.824219 45.5 274.726562 43.695312 274.949219 41.933594 C 275.609375 36.664062 279.109375 34.683594 283.648438 37.453125 C 287.894531 40.039062 291.761719 43.261719 295.699219 46.328125 C 312.597656 59.472656 329.457031 72.664062 346.339844 85.828125 C 347.128906 86.445312 347.96875 86.996094 349.5625 88.128906 C 349.5625 83.113281 349.5625 78.914062 349.5625 74.714844 C 349.5625 57.574219 349.535156 40.429688 349.574219 23.289062 C 349.585938 17.253906 350.738281 16.128906 356.789062 16.089844 C 364.644531 16.042969 372.5 16.078125 380.355469 16.078125 C 389.417969 16.082031 389.820312 16.472656 389.824219 25.308594 C 389.824219 37.628906 389.824219 49.949219 389.828125 62.269531 C 389.828125 63.84375 389.828125 65.414062 389.828125 67.363281 C 394.457031 62.097656 398.226562 56.664062 403.085938 52.5 C 421.75 36.515625 443.847656 33.496094 467.007812 38.113281 C 476.257812 39.960938 485.105469 44.402344 493.773438 48.433594 C 500.371094 51.503906 500.691406 54.261719 496.949219 60.324219 C 493.761719 65.480469 490.566406 70.632812 487.382812 75.792969 C 483.589844 81.9375 482.320312 82.347656 475.789062 79.007812 C 467.015625 74.527344 457.785156 72.203125 447.914062 73.007812 C 434.820312 74.078125 426.6875 81.515625 424.238281 94.480469 C 421.914062 106.8125 427.148438 118.394531 437.496094 123.40625 C 444.433594 126.765625 451.765625 126.445312 458.925781 124.503906 C 460.402344 124.101562 462.027344 121.261719 462.160156 119.445312 C 462.578125 113.761719 462.433594 108.023438 462.28125 102.3125 C 462.160156 97.871094 463.902344 95.671875 468.53125 95.71875 C 477.992188 95.820312 487.457031 95.613281 496.917969 95.78125 C 502.339844 95.878906 503.472656 98.125 500.945312 102.9375 C 491.742188 120.460938 482.578125 138.003906 473.257812 155.464844 C 472.351562 157.160156 470.632812 159.285156 468.996094 159.589844 C 445.117188 163.992188 422.289062 162.355469 402.707031 146.042969 C 398.152344 142.25 394.558594 137.304688 389.816406 132.121094 C 389.816406 138.40625 389.824219 144.136719 389.8125 149.867188 C 389.808594 151.652344 389.863281 153.445312 389.710938 155.222656 C 389.152344 161.589844 385.617188 163.582031 380.34375 160.035156 C 374.726562 156.261719 369.503906 151.898438 363.820312 147.550781 Z M 363.820312 147.550781 " fill-opacity="1" fill-rule="nonzero"/><path fill="#1047b3" d="M 700.132812 59.917969 C 700.140625 52.957031 700.179688 46.535156 700.144531 40.113281 C 700.128906 36.78125 701.410156 34.246094 704.957031 34.339844 C 727.917969 34.941406 750.992188 34.5625 773.800781 36.832031 C 789.578125 38.402344 802.074219 47.652344 805.867188 64.234375 C 809.75 81.214844 808.988281 97.878906 794.972656 110.792969 C 784.984375 119.996094 772.199219 122.050781 759.238281 122.984375 C 754.976562 123.292969 750.65625 123.445312 746.40625 123.109375 C 741.527344 122.726562 740.34375 124.777344 740.429688 129.320312 C 740.671875 142.515625 740.535156 155.722656 740.503906 168.925781 C 740.488281 176.242188 739.492188 177.230469 732.128906 177.265625 C 723.921875 177.296875 715.714844 177.320312 707.511719 177.238281 C 701.105469 177.175781 700.152344 176.175781 700.148438 169.636719 C 700.125 133.242188 700.136719 96.847656 700.132812 59.917969 M 763.292969 78.550781 C 759.523438 71.464844 755.757812 64.382812 751.988281 57.300781 C 751.347656 57.390625 750.710938 57.480469 750.074219 57.570312 C 743.886719 69.273438 737.703125 80.972656 731.242188 93.1875 C 744.851562 93.1875 757.621094 93.1875 771.023438 93.1875 C 768.300781 88.070312 765.960938 83.671875 763.292969 78.550781 Z M 763.292969 78.550781 " fill-opacity="1" fill-rule="nonzero"/><path fill="#1248b3" d="M 671.835938 147.46875 C 656.234375 156.808594 639.625 158.433594 622.421875 156.117188 C 620.738281 155.890625 618.738281 153.984375 617.863281 152.335938 C 604.5625 127.304688 591.402344 102.199219 578.296875 77.066406 C 577.511719 75.566406 577.128906 73.6875 577.113281 71.980469 C 577.007812 61.628906 577.148438 51.277344 577.039062 40.929688 C 576.988281 36.140625 579.167969 34.152344 583.859375 34.207031 C 592.78125 34.316406 601.703125 34.375 610.621094 34.183594 C 615.785156 34.070312 617.523438 36.425781 617.488281 41.332031 C 617.363281 59.890625 617.402344 78.449219 617.476562 97.007812 C 617.488281 100.195312 617.589844 103.46875 618.3125 106.546875 C 620.71875 116.804688 627.085938 121.378906 637.21875 120.53125 C 646.449219 119.761719 651.949219 114.042969 652.914062 103.984375 C 653.238281 100.617188 653.242188 97.210938 653.246094 93.824219 C 653.265625 68.84375 653.222656 43.859375 653.261719 18.875 C 653.269531 12.726562 654.363281 11.664062 660.402344 11.625 C 669.144531 11.574219 677.890625 11.769531 686.628906 11.554688 C 691.589844 11.4375 693.738281 13.230469 693.714844 18.394531 C 693.558594 47.480469 693.851562 76.570312 693.480469 105.65625 C 693.261719 122.824219 686.773438 137.238281 671.835938 147.46875 Z M 671.835938 147.46875 " fill-opacity="1" fill-rule="nonzero"/><path fill="#040917" d="M 493.007812 130.300781 C 507.960938 101.863281 522.679688 73.746094 537.523438 45.695312 C 539.460938 42.03125 541.210938 36.519531 546.171875 37.601562 C 549.429688 38.316406 552.804688 42.195312 554.5625 45.488281 C 573.8125 81.5 592.777344 117.664062 611.742188 153.828125 C 614.582031 159.242188 613.523438 160.769531 607.363281 160.792969 C 598.082031 160.828125 588.789062 160.558594 579.519531 160.894531 C 574.171875 161.085938 571.339844 158.550781 569.1875 154.148438 C 562.132812 139.738281 554.953125 125.386719 547.804688 111.019531 C 547.121094 109.644531 546.332031 108.316406 545.359375 106.550781 C 537.667969 122.160156 530.050781 137.09375 522.953125 152.273438 C 520.117188 158.339844 516.535156 161.421875 509.472656 160.9375 C 501.121094 160.367188 492.699219 160.859375 484.3125 160.785156 C 478.871094 160.738281 477.878906 159.097656 480.359375 154.3125 C 484.460938 146.398438 488.652344 138.53125 493.007812 130.300781 Z M 493.007812 130.300781 " fill-opacity="1" fill-rule="nonzero"/><path fill="#1147b3" d="M 810.5625 92.101562 C 815.125 65.996094 819.617188 40.347656 824.132812 14.703125 C 825.421875 7.371094 827.070312 6.128906 834.1875 7.6875 C 843.585938 9.75 852.964844 11.941406 862.296875 14.304688 C 868.351562 15.839844 869.472656 17.71875 867.796875 23.527344 C 857.175781 60.351562 846.457031 97.152344 835.78125 133.96875 C 834.597656 138.050781 832.308594 139.902344 827.835938 138.730469 C 821.976562 137.191406 816.050781 135.902344 810.121094 134.652344 C 805.066406 133.585938 803.589844 130.898438 804.636719 125.753906 C 806.875 114.75 808.578125 103.632812 810.5625 92.101562 Z M 810.5625 92.101562 " fill-opacity="1" fill-rule="nonzero"/><path fill="#1348b2" d="M 802.640625 142.960938 C 810.855469 140.636719 818.265625 142.070312 825.292969 145.710938 C 832.679688 149.539062 836 156.4375 834.324219 163.855469 C 832.492188 171.972656 826.929688 176.996094 818.21875 176.585938 C 812.511719 176.316406 806.597656 174.773438 801.324219 172.515625 C 795.464844 170.007812 791.757812 164.980469 792.085938 158.105469 C 792.421875 151.140625 795.472656 145.816406 802.640625 142.960938 Z M 802.640625 142.960938 " fill-opacity="1" fill-rule="nonzero"/><path fill="#f2f6fc" d="M 763.460938 78.914062 C 765.960938 83.671875 768.300781 88.070312 771.023438 93.1875 C 757.621094 93.1875 744.851562 93.1875 731.242188 93.1875 C 737.703125 80.972656 743.886719 69.273438 750.074219 57.570312 C 750.710938 57.480469 751.347656 57.390625 751.988281 57.300781 C 755.757812 64.382812 759.523438 71.464844 763.460938 78.914062 Z M 763.460938 78.914062 " fill-opacity="1" fill-rule="nonzero"/></svg>